<?xml version="1.0" encoding="UTF-8" standalone="no"?>
<!DOCTYPE svg PUBLIC "-//W3C//DTD SVG 1.1//EN" "http://www.w3.org/Graphics/SVG/1.1/DTD/svg11.dtd">
<svg width="100%" height="100%" viewBox="0 0 813 643" version="1.1" xmlns="http://www.w3.org/2000/svg" xmlns:xlink="http://www.w3.org/1999/xlink" xml:space="preserve" xmlns:serif="http://www.serif.com/" style="fill-rule:evenodd;clip-rule:evenodd;stroke-linejoin:round;stroke-miterlimit:2;">
    <g id="Artboard1" transform="matrix(0.925408,0,0,0.987073,-458.897,-557.351)">
        <rect x="495.886" y="564.651" width="878.267" height="650.515" style="fill:none;"/>
        <g transform="matrix(1.0806,0,0,1.0131,-109.805,-15.255)">
            <path d="M569.756,1180.82C584.837,1159.06 625.004,1096.38 633.158,1083.25C663.952,1033.67 697.42,966.4 740.604,928.356C754.6,916.027 774.802,909.004 808.496,906.22C794.271,886.881 753.064,839.272 742.093,798.808C740.645,793.466 715.041,779.419 698.542,774.821C702.265,773.663 726.921,765.633 757.802,782.184C789.748,774.696 812.399,779.505 839.051,786.741C862.972,793.234 913.661,834.957 934.132,804.842C943.265,791.405 932.134,771.224 950.901,763.645C983.121,750.632 1029.46,735.109 1097.23,709.284C1162.93,684.248 1303.34,623.917 1323.36,590.839C1324.62,616.512 1310.2,624.081 1288.63,642.703C1316.32,632.711 1323.54,625.277 1352.48,621.997C1339.43,629.031 1330.44,633.73 1322.35,645.781C1323.86,645.086 1341.6,641.121 1343.28,644.525C1345.2,648.431 1318.78,659.078 1309.73,666.994C1328.78,663.573 1337.73,678.12 1305.27,692.932C1328.54,710.858 1299.88,713.212 1281.88,717.519C1319.53,731.835 1283.8,741.013 1277.51,742.674C1284.51,753.233 1280.64,763.974 1260.11,771.514C1268.78,787.459 1243.23,790.705 1232.3,790.825C1237.91,811.233 1231.72,818.68 1215.46,826.359C1228.02,845.188 1218.89,851.996 1196.42,854.987C1207.76,872.698 1203.6,883.36 1178.09,872.823C1185.78,906.761 1131.89,895.962 1101.07,898.205C1120.03,906.557 1121.8,914.663 1139.4,926.258C1155.21,936.671 1181.36,961.569 1237.08,962.704C1242.85,962.822 1265.87,965.192 1308.2,975.048C1336.34,981.597 1398.6,995.695 1342.07,1007.36C1349.17,1010.02 1351.81,1017.4 1349,1021.07C1343.4,1028.37 1326.85,1026.38 1324.74,1026.46C1342.38,1044.37 1333.62,1062 1308.39,1053.04C1325.36,1083.93 1306.27,1082.33 1284.98,1073.72C1288.98,1089.97 1285.94,1099.67 1266.19,1092.08C1265.71,1101.4 1263.1,1122.16 1244.86,1109.92C1245.36,1128.48 1233.82,1129.25 1220.64,1116.23C1173.63,1069.8 1166.33,1064.6 1124.04,1028.52C1066.42,1042.28 1071.26,1026.34 1013.96,1012.74C1014.53,1038.15 993.508,1038.72 982.297,1033.58C982.421,1050.72 959.288,1057.81 943.539,1050.98C937.735,1072.03 909.02,1083.65 895.353,1075.49C895.227,1083.12 891.516,1116.36 860.997,1092.13C863.85,1113.02 840.349,1110.03 830.169,1107.49C811.076,1138.26 807.06,1138.58 790.914,1125.99C791.883,1127.84 781.169,1152.66 752.365,1131.91C737.885,1160.78 722.874,1155.18 715.127,1151.33C695.575,1191.15 684.149,1170.75 678.021,1162.03C655.676,1184.06 630.452,1198.02 644.953,1165.29C582.643,1229.44 592.93,1195.39 606.715,1154.23C594.738,1161.18 589.853,1175.98 575.774,1181.16C575.219,1181.37 569.065,1182.9 569.756,1180.82Z"/>
        </g>
    </g>
</svg>
